<svg xmlns="http://www.w3.org/2000/svg" version="1.1" xmlns:xlink="http://www.w3.org/1999/xlink" xmlns:svgjs="http://svgjs.dev/svgjs" width="1000" height="1000" viewBox="0 0 1000 1000"><rect width="1000" height="1000" fill="#000000"></rect><g transform="matrix(0.7,0,0,0.7,149.57605563665675,362.26753536693406)"><svg viewBox="0 0 396 156" data-background-color="#ffffff" preserveAspectRatio="xMidYMid meet" height="393" width="1000" xmlns="http://www.w3.org/2000/svg" xmlns:xlink="http://www.w3.org/1999/xlink"><g id="tight-bounds" transform="matrix(1,0,0,1,0.24008861730862918,0.1036993648778548)"><svg viewBox="0 0 395.52 155.79283105039553" height="155.79283105039553" width="395.52"><g><svg viewBox="0 0 395.52 155.79283105039553" height="155.79283105039553" width="395.52"><g><svg viewBox="0 0 395.52 155.79283105039553" height="155.79283105039553" width="395.52"><g id="textblocktransform"><svg viewBox="0 0 395.52 155.79283105039553" height="155.79283105039553" width="395.52" id="textblock"><g><svg viewBox="0 0 395.52 121.55218875773264" height="121.55218875773264" width="395.52"><path d="M394.594 26.071C392.735 13.454 387.435 9.946 387.435 9.946 371.165-3.05 350.86-0.249 332.619 1.619 300.414 1.694 268.339 4.47 236.208 5.959 168.767 6.186 100.749 2.451 33.643 11.662 27.339 14.488-6.54 12.217 1.121 27.686 3.129 34.12 10.456 41.262 10.232 47.166 11.236 48.201 12.631 45.829 13.226 47.318 15.309 51.33 18.711 49.437 21.501 51.809 17.614 58.143 20.403 63.417 23.062 68.943 18.377 70.382 12.371 69.7 9.675 74.47 9.396 77.927 7.89 77.271 6.235 77.119 5.026 77.018 2.59 77.397 2.999 78.482 4.394 82.191-1.594 84.336 2.162 87.97-0.422 91.907 3.948 95.313 3.353 99.578 3.278 100.436 3.687 101.167 4.338 101.369 7.22 102.454 3.018 104.574 3.464 106.87 33.029 122.566 65.104 111.715 95.394 118.932 103.259 113.885 97.346 120.724 100.489 119.664 102.943 118.428 104.728 123.55 107.499 120.648 107.927 119.815 107.276 117.847 108.8 118.226 109.6 118.428 110.307 118.377 110.418 117.216 110.586 115.475 109.117 116.56 108.726 115.652 112.947 111.059 111.906 121.986 115.866 121.531 115.68 120.194 114.528 118.276 116.889 118.529 119.232 116.611 119.306 115.021 121.389 119.336 121.463 120.27 121.835 120.926 122.43 121.38 128.938 116.686 135.409 123.045 142.233 120.926 146.417 118.604 150.433 122.187 154.672 121.304 156.16 120.598 157.666 119.336 159.098 121.456 176.632 121.91 195.319 120.017 211.943 121.531 256.364 118.705 303.835 122.692 350.674 118.958 361.719 117.519 373.192 115.475 383.958 113.835 383.958 113.835 392.679 109.343 392.679 89.156S394.538 71.492 394.817 55.418C395.096 39.344 396.398 38.688 394.538 26.071Z" opacity="1" fill="#398378" data-fill-palette-color="tertiary"></path><g transform="matrix(1,0,0,1,55.76832,26.068561146666667)"><svg width="283.98335999999995" viewBox="2.3499999046325684 -45.45000076293945 207.67999267578125 51.54999923706055" height="69.4150664643993" data-palette-color="#ffffff"><path d="M8.5 0Q8.1 0 8.1-0.6L8.1-0.6Q8.1-1.75 9.75-3.2L9.75-3.2Q10.8-4.25 11.2-5.2 11.6-6.15 12.1-8.8L12.1-8.8 15.85-30.2 12.85-30.2Q9.3-30.2 7.98-29.45 6.65-28.7 6.65-26.7L6.65-26.7Q6.65-25.45 7.05-24.55 7.45-23.65 7.45-23.45L7.45-23.45Q7.45-22.85 6.73-21.75 6-20.65 5.1-19.8 4.2-18.95 3.65-18.95L3.65-18.95Q3.45-18.95 3.33-19.13 3.2-19.3 3.15-19.35L3.15-19.35Q2.35-21.05 2.35-23.45L2.35-23.45Q2.35-26.6 3.95-29.18 5.55-31.75 8.45-33.23 11.35-34.7 15.05-34.7L15.05-34.7 25.75-34.7Q28.8-34.7 30.03-35.35 31.25-36 31.25-37.7L31.25-37.7Q31.25-38.85 30.75-39.8 30.25-40.75 30.25-41L30.25-41Q30.25-41.4 30.93-42.5 31.6-43.6 32.4-44.53 33.2-45.45 33.6-45.45L33.6-45.45Q33.75-45.45 33.85-45.38 33.95-45.3 34-45.25L34-45.25Q34.7-44.4 35.05-43.08 35.4-41.75 35.4-40.3L35.4-40.3Q35.4-35.6 31.93-32.9 28.45-30.2 22.65-30.2L22.65-30.2 21.2-30.2 17.05-6.55Q16.7-5.05 15.85-4.35L15.85-4.35 15.85-4.3Q16.7-3.85 17.85-3.85L17.85-3.85Q18.55-3.85 19.28-4.13 20-4.4 20.2-4.4L20.2-4.4Q20.45-4.4 20.53-4.3 20.6-4.2 20.6-3.95L20.6-3.95Q20.6-3.5 20.35-3.1 20.1-2.7 20.05-2.6L20.05-2.6Q18.85-1.15 17.9-0.58 16.95 0 16.05 0L16.05 0Q15.6 0 14.98-0.15 14.35-0.3 14.1-0.35L14.1-0.35Q12.65-0.8 11.6-0.8L11.6-0.8Q10.5-0.8 9.6-0.4 8.7 0 8.5 0L8.5 0ZM29.8 0.5Q29 0.5 29 0L29 0Q29-0.25 29.35-1.4L29.35-1.4Q29.85-2.85 30-3.6L30-3.6Q30.5-6.25 31.8-14.8L31.8-14.8 33.1-22.9Q34.1-28.85 35.62-32.95 37.15-37.05 39.45-39.6L39.45-39.6Q41.25-41.6 42.92-42.28 44.6-42.95 47.15-43.35L47.15-43.35Q48.75-43.6 49.25-43.73 49.75-43.85 49.9-43.85L49.9-43.85Q50.3-43.85 50.3-43.3L50.3-43.3Q50.3-42.85 49.92-42.23 49.55-41.6 49-41.05L49-41.05Q48.2-40.3 46.6-40.3L46.6-40.3Q45.05-40.15 43.9-39.45 42.75-38.75 41.7-37.2L41.7-37.2Q40.25-35 39.4-31.53 38.55-28.05 37.65-21.25L37.65-21.25 37-16.45 37.05-16.45Q42.3-23.8 46.1-23.8L46.1-23.8Q47.35-23.8 48-22.98 48.65-22.15 48.65-20.25L48.65-20.25Q48.65-18.8 48.2-16.45L48.2-16.45Q47.2-11.25 46.75-9.1L46.75-9.1Q46.1-5.55 46.1-5.2L46.1-5.2Q46.1-4.2 46.75-4.2L46.75-4.2Q47.5-4.2 48.15-5.18 48.8-6.15 49.6-8.1L49.6-8.1Q49.85-8.8 50.2-8.8L50.2-8.8Q50.65-8.8 50.65-7.85L50.65-7.85Q50.65-6.1 49.55-4.13 48.45-2.15 46.77-0.83 45.1 0.5 43.45 0.5L43.45 0.5Q40.95 0.5 40.95-2.8L40.95-2.8Q40.95-4.1 41.25-5.95 41.55-7.8 42.15-10.7L42.15-10.7Q42.55-12.65 42.87-14.6 43.2-16.55 43.25-17.75L43.25-17.75 43.25-18.05Q43.25-18.95 42.7-18.95L42.7-18.95Q41.85-18.95 40.37-17.18 38.9-15.4 37.55-12.75 36.2-10.1 35.75-7.65L35.75-7.65 34.95-3.6Q34.6-2.1 32.97-0.8 31.35 0.5 29.8 0.5L29.8 0.5ZM58.65 0.5Q56.05 0.5 54.57-1.28 53.1-3.05 53.1-6.25L53.1-6.25Q53.1-10 55.02-14.13 56.95-18.25 59.92-21.03 62.9-23.8 65.9-23.8L65.9-23.8Q67.55-23.8 68.52-22.85 69.5-21.9 69.5-20.1L69.5-20.1Q69.5-17.85 68.05-15.48 66.59-13.1 64.07-11.08 61.55-9.05 58.4-7.8L58.4-7.8Q58.55-4.35 61.45-4.35L61.45-4.35Q63.05-4.35 64.47-5.35 65.9-6.35 67-8.05L67-8.05Q67.25-8.5 67.45-8.72 67.65-8.95 67.84-8.95L67.84-8.95Q68.15-8.95 68.25-8.75 68.34-8.55 68.34-8.05L68.34-8.05Q68.34-6.45 66.92-4.4 65.5-2.35 63.25-0.93 61 0.5 58.65 0.5L58.65 0.5ZM59.65-11.9Q60.75-11.9 61.9-12.68 63.05-13.45 63.8-14.7 64.55-15.95 64.55-17.4L64.55-17.4Q64.55-19.2 63.1-19.2L63.1-19.2Q61.55-19.2 60.3-17.25 59.05-15.3 58.7-12.05L58.7-12.05Q59-11.9 59.65-11.9L59.65-11.9ZM68.99 6.1Q68.49 6.1 68.49 5.6L68.49 5.6Q68.49 4.95 69.12 4.08 69.74 3.2 70.79 2.6 71.84 2 73.09 2L73.09 2 90.49 2Q91.24 2 91.89 1.88 92.54 1.75 92.84 1.75L92.84 1.75Q93.49 1.75 93.49 2.35L93.49 2.35Q93.49 3 92.87 3.83 92.24 4.65 91.19 5.25 90.14 5.85 88.94 5.85L88.94 5.85 71.39 5.85Q70.69 5.85 69.99 5.98 69.29 6.1 68.99 6.1L68.99 6.1ZM100.69 0.5Q99.04 0.5 97.94-0.1 96.84-0.7 96.31-1.53 95.79-2.35 95.74-3.05L95.74-3.05Q95.59-3.95 96.19-4.93 96.79-5.9 97.84-6.7L97.84-6.7Q98.49-7.2 98.74-7.2L98.74-7.2Q98.94-7.2 99.12-6.98 99.29-6.75 99.44-6.4L99.44-6.4Q99.94-4.95 100.69-4.05 101.44-3.15 102.89-3.15L102.89-3.15Q104.09-3.15 104.87-3.8 105.64-4.45 105.64-5.5L105.64-5.5Q105.64-6.15 105.19-7.08 104.74-8 103.54-9.8L103.54-9.8 102.49-11.3Q101.14-13.3 100.67-14.28 100.19-15.25 100.19-16.25L100.19-16.25Q100.19-18.25 101.37-20 102.54-21.75 104.47-22.78 106.39-23.8 108.59-23.8L108.59-23.8Q110.54-23.8 111.84-23.03 113.14-22.25 113.14-20.95L113.14-20.95Q113.14-20 112.29-18.8L112.29-18.8Q111.64-18 111.24-18L111.24-18Q111.04-18 110.94-18.1 110.84-18.2 110.72-18.38 110.59-18.55 110.49-18.7L110.49-18.7Q109.34-20.35 107.49-20.35L107.49-20.35Q106.29-20.35 105.54-19.8 104.79-19.25 104.79-18.25L104.79-18.25Q104.79-17.5 105.19-16.82 105.59-16.15 106.44-15.1L106.44-15.1 107.29-14 108.44-12.5Q109.44-11.15 109.89-10.08 110.34-9 110.34-7.7L110.34-7.7Q110.34-5.3 108.81-3.43 107.29-1.55 105.02-0.53 102.74 0.5 100.69 0.5L100.69 0.5ZM119.14 0.5Q116.79 0.5 115.44-1.23 114.09-2.95 114.09-6.2L114.09-6.2Q114.09-10.25 116.11-14.35 118.14-18.45 121.21-21.13 124.29-23.8 127.19-23.8L127.19-23.8Q129.54-23.8 130.84-22.05 132.14-20.3 132.14-17.15L132.14-17.15Q132.14-13.3 130.21-9.15 128.29-5 125.26-2.25 122.24 0.5 119.14 0.5L119.14 0.5ZM121.84-3.85Q123.24-3.85 124.39-5.33 125.54-6.8 126.19-9.3 126.84-11.8 126.84-14.75L126.84-14.75Q126.84-17.25 126.29-18.35 125.74-19.45 124.59-19.45L124.59-19.45Q123.24-19.45 122.06-18.07 120.89-16.7 120.16-14.3 119.44-11.9 119.44-8.95L119.44-8.95Q119.44-3.85 121.84-3.85L121.84-3.85ZM138.88 0.5Q136.43 0.5 135.01-1.33 133.58-3.15 133.58-6.3L133.58-6.3Q133.58-10.1 135.56-14.23 137.53-18.35 140.71-21.08 143.88-23.8 147.23-23.8L147.23-23.8Q148.78-23.8 149.76-23.18 150.73-22.55 150.73-21.5L150.73-21.5Q150.73-20.75 149.88-19.2L149.88-19.2Q149.48-18.5 149.03-18.5L149.03-18.5Q148.68-18.5 148.43-18.8L148.43-18.8Q147.08-20.15 145.38-20.15L145.38-20.15Q143.53-20.15 142.06-18.75 140.58-17.35 139.76-14.93 138.93-12.5 138.93-9.5L138.93-9.5Q138.93-6.8 139.66-5.58 140.38-4.35 141.98-4.35L141.98-4.35Q144.63-4.35 146.68-8.05L146.68-8.05Q146.93-8.6 147.11-8.78 147.28-8.95 147.53-8.95L147.53-8.95Q148.03-8.95 148.03-8.05L148.03-8.05Q148.03-6.35 146.68-4.33 145.33-2.3 143.21-0.9 141.08 0.5 138.88 0.5L138.88 0.5ZM158.28-25.5Q157.93-25.5 157.83-25.63 157.73-25.75 157.78-26.1L157.78-26.1 158.48-30.05Q158.78-31.65 159.88-32.63 160.98-33.6 163.03-33.6L163.03-33.6 163.43-33.6Q163.98-33.6 163.93-33.05L163.93-33.05 163.23-29.1Q162.63-25.5 158.63-25.5L158.63-25.5 158.28-25.5ZM156.18 0.5Q153.73 0.5 153.73-2.8L153.73-2.8Q153.73-3.7 153.98-5.2L153.98-5.2 156.38-17.3Q156.48-18.2 156.48-18.4L156.48-18.4Q156.48-19.1 156.03-19.1L156.03-19.1Q155.58-19.1 154.98-18.38 154.38-17.65 153.43-16L153.43-16Q153.38-15.9 153.21-15.58 153.03-15.25 152.88-15.1 152.73-14.95 152.58-14.95L152.58-14.95Q152.13-14.95 152.13-15.75L152.13-15.75Q152.13-17.15 153.33-19.07 154.53-21 156.33-22.4 158.13-23.8 159.83-23.8L159.83-23.8Q161.93-23.8 161.93-21L161.93-21Q161.93-20.2 161.58-18.25L161.58-18.25 159.08-5.35Q158.98-4.95 158.98-4.8L158.98-4.8Q158.98-4.2 159.53-4.2L159.53-4.2Q160.18-4.2 161.01-5.25 161.83-6.3 162.58-8.1L162.58-8.1Q162.83-8.8 163.18-8.8L163.18-8.8Q163.63-8.8 163.63-7.95L163.63-7.95Q163.63-6.2 162.48-4.23 161.33-2.25 159.61-0.88 157.88 0.5 156.18 0.5L156.18 0.5ZM169.43 0.5Q167.88 0.5 167-1.05 166.13-2.6 166.13-5.2L166.13-5.2Q166.13-9.35 168.15-13.7 170.18-18.05 173.68-20.93 177.18-23.8 181.23-23.8L181.23-23.8Q182.53-23.8 183.8-23.5 185.08-23.2 185.88-22.75L185.88-22.75Q185.43-21.65 185.28-20.95 185.13-20.25 185.08-20.05L185.08-20.05Q184.73-18.25 184.05-14.58 183.38-10.9 182.78-7.55L182.78-7.55Q182.48-6.05 182.48-5.25L182.48-5.25Q182.48-4.7 182.65-4.45 182.83-4.2 183.18-4.2L183.18-4.2Q184.03-4.2 184.73-5.23 185.43-6.25 186.23-8.1L186.23-8.1Q186.33-8.4 186.48-8.6 186.63-8.8 186.88-8.8L186.88-8.8Q187.33-8.8 187.33-8.1L187.33-8.1Q187.33-7.75 187.28-7.55L187.28-7.55Q187.03-5.65 185.98-3.78 184.93-1.9 183.4-0.7 181.88 0.5 180.28 0.5L180.28 0.5Q178.98 0.5 178.25-0.45 177.53-1.4 177.53-3L177.53-3Q177.53-3.4 177.63-4.2L177.63-4.2 177.88-5.9 177.78-5.9Q175.93-3.1 173.55-1.3 171.18 0.5 169.43 0.5L169.43 0.5ZM172.28-4.45Q173.38-4.45 175.1-6.4 176.83-8.35 178.33-11.33 179.83-14.3 180.33-17.25L180.33-17.25 180.68-19.2Q179.43-19.95 178.38-19.95L178.38-19.95Q176.78-19.95 175.15-17.98 173.53-16 172.5-12.88 171.48-9.75 171.48-6.5L171.48-6.5Q171.48-5.3 171.65-4.88 171.83-4.45 172.28-4.45L172.28-4.45ZM192.88 0.5Q190.18 0.5 190.18-3.45L190.18-3.45Q190.18-4.65 190.38-5.85L190.38-5.85 193.38-24.2Q194.43-30.95 195.95-35 197.48-39.05 200.03-41.05L200.03-41.05Q201.53-42.2 203-42.6 204.48-43 206.88-43.35L206.88-43.35Q208.43-43.6 208.9-43.73 209.38-43.85 209.53-43.85L209.53-43.85Q210.03-43.85 210.03-43.3L210.03-43.3Q210.03-42.85 209.65-42.23 209.28-41.6 208.73-41.05L208.73-41.05Q208.18-40.55 207.65-40.43 207.13-40.3 206.33-40.3L206.33-40.3Q204.13-40.3 202.68-38.8L202.68-38.8Q201.43-37.55 200.55-35.08 199.68-32.6 198.98-28.15L198.98-28.15 195.48-6.1Q195.43-5.75 195.43-5.25L195.43-5.25Q195.43-4.65 195.58-4.42 195.73-4.2 196.03-4.2L196.03-4.2Q196.78-4.2 197.43-5.25 198.08-6.3 198.88-8.1L198.88-8.1Q198.98-8.4 199.13-8.6 199.28-8.8 199.48-8.8L199.48-8.8Q199.93-8.8 199.93-7.95L199.93-7.95Q199.93-6.25 198.83-4.25 197.73-2.25 196.08-0.88 194.43 0.5 192.88 0.5L192.88 0.5Z" opacity="1" transform="matrix(1,0,0,1,0,0)" fill="#ffffff" class="undefined-text-0" data-fill-palette-color="quaternary" id="text-0"></path></svg></g></svg></g><g transform="matrix(1,0,0,1,75.54432,137.93941998838216)"><svg viewBox="0 0 244.43135999999998 17.853411062013357" height="17.853411062013357" width="244.43135999999998"><g transform="matrix(1,0,0,1,0,0)"><svg width="244.43135999999998" viewBox="0.699999988079071 -34.45000076293945 632.4599609375 46.20000076293945" height="17.853411062013357" data-palette-color="#398378"><path d="M10.65 0L0.7-31.4 5.1-31.4 13.25-3.45 12.1-3.45 20.45-28.15 23.1-28.15 31.35-3.65 30.25-3.65 39.6-31.4 43.95-31.4 32.85 0 28.75 0 21.5-21.3 22.25-21.3 14.75 0 10.65 0ZM70.6 0L66.75 0 66.75-14.05Q66.75-17.48 65.11-19.26 63.47-21.05 60.65-21.05L60.65-21.05Q58.5-21.05 56.92-19.88 55.35-18.7 54.5-16.51 53.65-14.33 53.65-11.3L53.65-11.3 52.15-11.3Q52.15-15.48 53.25-18.43 54.35-21.38 56.46-22.94 58.57-24.5 61.6-24.5L61.6-24.5Q64.42-24.5 66.44-23.24 68.45-21.98 69.52-19.63 70.6-17.28 70.6-14.05L70.6-14.05 70.6 0ZM53.65 0L49.75 0 49.75-34.1 53.65-34.1 53.65 0ZM88.22 0.6L88.22 0.6Q85.12 0.6 82.68-0.99 80.25-2.58 78.83-5.4 77.42-8.22 77.42-11.9L77.42-11.9Q77.42-15.83 78.82-18.65 80.22-21.48 82.66-22.99 85.09-24.5 88.22-24.5L88.22-24.5Q90.95-24.5 92.87-23.4 94.8-22.3 95.97-20.43 97.15-18.55 97.61-16.19 98.07-13.83 97.87-11.3L97.87-11.3 80.57-11.3 80.57-13.7 95.3-13.7 94.15-12.95Q94.22-14.43 93.98-15.9 93.75-17.38 93.09-18.61 92.45-19.85 91.27-20.6 90.09-21.35 88.27-21.35L88.27-21.35Q85.97-21.35 84.42-20.18 82.87-19 82.09-17.09 81.32-15.18 81.32-12.95L81.32-12.95 81.32-11.35Q81.32-8.85 82.08-6.88 82.84-4.9 84.37-3.75 85.9-2.6 88.22-2.6L88.22-2.6Q90.55-2.6 92.05-3.73 93.55-4.85 93.87-7.05L93.87-7.05 97.92-7.05Q97.55-4.67 96.22-2.96 94.9-1.25 92.84-0.33 90.8 0.6 88.22 0.6ZM109.49 0L105.59 0 105.59-23.95 109.49-23.95 109.49 0ZM109.49-10.8L108.29-10.8Q108.29-15.35 109.17-18.36 110.04-21.38 111.73-22.86 113.42-24.35 115.84-24.35L115.84-24.35Q116.64-24.35 117.31-24.24 117.97-24.13 118.64-23.9L118.64-23.9 118.39-20.05Q117.69-20.28 116.87-20.44 116.04-20.6 115.39-20.6L115.39-20.6Q113.27-20.6 111.97-19.39 110.67-18.18 110.08-15.98 109.49-13.78 109.49-10.8L109.49-10.8ZM131.97 0.6L131.97 0.6Q128.87 0.6 126.43-0.99 123.99-2.58 122.58-5.4 121.17-8.22 121.17-11.9L121.17-11.9Q121.17-15.83 122.57-18.65 123.97-21.48 126.4-22.99 128.84-24.5 131.97-24.5L131.97-24.5Q134.69-24.5 136.62-23.4 138.54-22.3 139.72-20.43 140.89-18.55 141.35-16.19 141.81-13.83 141.62-11.3L141.62-11.3 124.32-11.3 124.32-13.7 139.04-13.7 137.89-12.95Q137.97-14.43 137.73-15.9 137.49-17.38 136.84-18.61 136.19-19.85 135.02-20.6 133.84-21.35 132.02-21.35L132.02-21.35Q129.72-21.35 128.17-20.18 126.62-19 125.84-17.09 125.07-15.18 125.07-12.95L125.07-12.95 125.07-11.35Q125.07-8.85 125.83-6.88 126.59-4.9 128.12-3.75 129.64-2.6 131.97-2.6L131.97-2.6Q134.29-2.6 135.79-3.73 137.29-4.85 137.62-7.05L137.62-7.05 141.67-7.05Q141.29-4.67 139.97-2.96 138.64-1.25 136.59-0.33 134.54 0.6 131.97 0.6ZM167.81-12.9L156.61-31.4 161.31-31.4 170.31-16.15 169.31-16.15 178.46-31.4 183.11-31.4 171.76-12.9 171.76 0 167.81 0 167.81-12.9ZM194.03 0.6L194.03 0.6Q190.81 0.6 188.3-0.83 185.78-2.25 184.33-5.05 182.88-7.85 182.88-11.95L182.88-11.95Q182.88-16.07 184.33-18.86 185.78-21.65 188.3-23.08 190.81-24.5 194.03-24.5L194.03-24.5Q197.23-24.5 199.75-23.08 202.26-21.65 203.7-18.86 205.13-16.07 205.13-11.95L205.13-11.95Q205.13-7.85 203.7-5.05 202.26-2.25 199.75-0.83 197.23 0.6 194.03 0.6ZM193.93-2.8L193.93-2.8Q196.26-2.8 197.88-3.91 199.51-5.03 200.35-7.08 201.18-9.13 201.18-11.95L201.18-11.95Q201.18-16.23 199.41-18.69 197.63-21.15 194.13-21.15L194.13-21.15Q191.78-21.15 190.17-20.04 188.56-18.93 187.72-16.86 186.88-14.8 186.88-11.95L186.88-11.95Q186.88-7.73 188.67-5.26 190.46-2.8 193.93-2.8ZM228.96 0L228.96-23.95 232.86-23.95 232.86 0 228.96 0ZM212.01-8.75L212.01-23.95 215.91-23.95 215.91-9.05Q215.91-6.05 217.37-4.5 218.83-2.95 221.56-2.95L221.56-2.95Q223.81-2.95 225.47-4.15 227.13-5.35 228.04-7.46 228.96-9.58 228.96-12.3L228.96-12.3 230.41-12.3Q230.41-8.28 229.24-5.43 228.08-2.58 225.97-1.06 223.86 0.45 221.01 0.45L221.01 0.45Q218.31 0.45 216.28-0.55 214.26-1.55 213.13-3.59 212.01-5.63 212.01-8.75L212.01-8.75ZM246.88 0L242.98 0 242.98-23.95 246.88-23.95 246.88 0ZM246.88-10.8L245.68-10.8Q245.68-15.35 246.55-18.36 247.43-21.38 249.12-22.86 250.8-24.35 253.23-24.35L253.23-24.35Q254.03-24.35 254.69-24.24 255.35-24.13 256.03-23.9L256.03-23.9 255.78-20.05Q255.08-20.28 254.25-20.44 253.43-20.6 252.78-20.6L252.78-20.6Q250.65-20.6 249.35-19.39 248.05-18.18 247.47-15.98 246.88-13.78 246.88-10.8L246.88-10.8ZM284.02 0.6L284.02 0.6Q280.12 0.6 277.05-1.2 273.97-3 272.2-6.61 270.42-10.23 270.42-15.65L270.42-15.65Q270.42-21.15 272.2-24.76 273.97-28.38 277.05-30.16 280.12-31.95 284.02-31.95L284.02-31.95Q287.92-31.95 291-30.15 294.07-28.35 295.85-24.73 297.62-21.1 297.62-15.65L297.62-15.65Q297.62-10.18 295.85-6.56 294.07-2.95 291-1.18 287.92 0.6 284.02 0.6ZM284.02-3L284.02-3Q288.45-3 291.01-6.23 293.57-9.45 293.57-15.7L293.57-15.7Q293.57-21.83 291.01-25.14 288.45-28.45 284.02-28.45L284.02-28.45Q279.65-28.45 277.06-25.13 274.47-21.8 274.47-15.65L274.47-15.65Q274.47-9.43 277.06-6.21 279.65-3 284.02-3ZM316.05 0.6L316.05 0.6Q313.42 0.6 311.48-0.6 309.55-1.8 308.5-4.11 307.45-6.43 307.45-9.75L307.45-9.75 309.1-9.75Q309.1-7.53 310.02-6 310.95-4.48 312.43-3.69 313.92-2.9 315.6-2.9L315.6-2.9Q317.4-2.9 319.05-3.94 320.7-4.98 321.75-7 322.8-9.03 322.8-12L322.8-12Q322.8-14.85 321.83-16.88 320.87-18.9 319.25-19.98 317.62-21.05 315.65-21.05L315.65-21.05Q313.95-21.05 312.45-20.23 310.95-19.4 310.02-17.81 309.1-16.23 309.1-13.9L309.1-13.9 307.45-13.9Q307.45-17.38 308.6-19.74 309.75-22.1 311.72-23.3 313.7-24.5 316.15-24.5L316.15-24.5Q318.95-24.5 321.37-23 323.8-21.5 325.3-18.7 326.8-15.9 326.8-12L326.8-12Q326.8-8.05 325.28-5.23 323.77-2.4 321.32-0.9 318.87 0.6 316.05 0.6ZM309.1 11.75L305.2 11.75 305.2-23.9 308.45-23.9 309.1-18.3 309.1 11.75ZM336.62-29.55L336.62-29.55Q335.42-29.55 334.72-30.24 334.02-30.93 334.02-32.05L334.02-32.05Q334.02-33.15 334.72-33.8 335.42-34.45 336.62-34.45L336.62-34.45Q337.82-34.45 338.52-33.8 339.22-33.15 339.22-32.05L339.22-32.05Q339.22-30.93 338.52-30.24 337.82-29.55 336.62-29.55ZM338.57 0L334.67 0 334.67-23.95 338.57-23.95 338.57 0ZM370.17 0L366.32 0 366.32-14.05Q366.32-17.48 364.68-19.26 363.04-21.05 360.22-21.05L360.22-21.05Q358.07-21.05 356.49-19.88 354.92-18.7 354.07-16.51 353.22-14.33 353.22-11.3L353.22-11.3 351.72-11.3Q351.72-15.48 352.82-18.43 353.92-21.38 356.03-22.94 358.14-24.5 361.17-24.5L361.17-24.5Q363.99-24.5 366-23.24 368.02-21.98 369.09-19.63 370.17-17.28 370.17-14.05L370.17-14.05 370.17 0ZM353.22 0L349.32 0 349.32-23.9 352.67-23.9 353.22-18.4 353.22 0ZM381.69-29.55L381.69-29.55Q380.49-29.55 379.79-30.24 379.09-30.93 379.09-32.05L379.09-32.05Q379.09-33.15 379.79-33.8 380.49-34.45 381.69-34.45L381.69-34.45Q382.89-34.45 383.59-33.8 384.29-33.15 384.29-32.05L384.29-32.05Q384.29-30.93 383.59-30.24 382.89-29.55 381.69-29.55ZM383.64 0L379.74 0 379.74-23.95 383.64-23.95 383.64 0ZM403.04 0.6L403.04 0.6Q399.81 0.6 397.3-0.83 394.79-2.25 393.34-5.05 391.89-7.85 391.89-11.95L391.89-11.95Q391.89-16.07 393.34-18.86 394.79-21.65 397.3-23.08 399.81-24.5 403.04-24.5L403.04-24.5Q406.24-24.5 408.75-23.08 411.26-21.65 412.7-18.86 414.14-16.07 414.14-11.95L414.14-11.95Q414.14-7.85 412.7-5.05 411.26-2.25 408.75-0.83 406.24 0.6 403.04 0.6ZM402.94-2.8L402.94-2.8Q405.26-2.8 406.89-3.91 408.51-5.03 409.35-7.08 410.19-9.13 410.19-11.95L410.19-11.95Q410.19-16.23 408.41-18.69 406.64-21.15 403.14-21.15L403.14-21.15Q400.79-21.15 399.17-20.04 397.56-18.93 396.72-16.86 395.89-14.8 395.89-11.95L395.89-11.95Q395.89-7.73 397.67-5.26 399.46-2.8 402.94-2.8ZM442.56 0L438.71 0 438.71-14.05Q438.71-17.48 437.07-19.26 435.43-21.05 432.61-21.05L432.61-21.05Q430.46-21.05 428.88-19.88 427.31-18.7 426.46-16.51 425.61-14.33 425.61-11.3L425.61-11.3 424.11-11.3Q424.11-15.48 425.21-18.43 426.31-21.38 428.42-22.94 430.53-24.5 433.56-24.5L433.56-24.5Q436.38-24.5 438.4-23.24 440.41-21.98 441.48-19.63 442.56-17.28 442.56-14.05L442.56-14.05 442.56 0ZM425.61 0L421.71 0 421.71-23.9 425.06-23.9 425.61-18.4 425.61 0ZM463.75 0L463.75-31.4 469.35-31.4 480.15-9.7 479.75-9.7 490.55-31.4 496-31.4 496 0 492.05 0 492.05-27.35 492.75-27.35 481.25-3.95 478.65-3.95 467.2-27.2 467.65-27.2 467.65 0 463.75 0ZM524.3 0L520.9 0 520.4-5.25 520.4-15.5Q520.4-18.73 519.03-20.14 517.65-21.55 514.9-21.55L514.9-21.55Q513.35-21.55 512.09-21.1 510.83-20.65 510.09-19.71 509.35-18.78 509.35-17.3L509.35-17.3 505-17.3Q505-19.9 506.28-21.49 507.55-23.08 509.79-23.79 512.03-24.5 514.9-24.5L514.9-24.5Q517.65-24.5 519.78-23.58 521.9-22.65 523.1-20.64 524.3-18.63 524.3-15.4L524.3-15.4 524.3 0ZM512.75 0.6L512.75 0.6Q509.8 0.6 507.88-0.45 505.95-1.5 505-3.18 504.05-4.85 504.05-6.7L504.05-6.7Q504.05-9.13 505.26-10.65 506.48-12.18 508.58-12.89 510.68-13.6 513.3-13.6L513.3-13.6Q515.18-13.6 517.06-13.23 518.95-12.85 520.75-12.2L520.75-12.2 520.75-9.75Q519.25-10.35 517.36-10.7 515.48-11.05 513.9-11.05L513.9-11.05Q511.5-11.05 509.85-10.06 508.2-9.08 508.2-6.7L508.2-6.7Q508.2-4.95 509.46-3.7 510.73-2.45 513.5-2.45L513.5-2.45Q515.45-2.45 517.01-3.36 518.58-4.28 519.49-5.65 520.4-7.03 520.4-8.4L520.4-8.4 521.35-8.4Q521.35-6 520.31-3.95 519.28-1.9 517.35-0.65 515.43 0.6 512.75 0.6ZM540.97 0.6L540.97 0.6Q539.02 0.6 537.47-0.15 535.92-0.9 535.02-2.4 534.12-3.9 534.12-6.15L534.12-6.15 534.12-30.55 537.97-30.55 537.97-6.25Q537.97-2.55 541.42-2.55L541.42-2.55Q542.45-2.55 543.41-2.78 544.37-3 545.57-3.45L545.57-3.45 546.12-0.65Q544.85-0.1 543.59 0.25 542.32 0.6 540.97 0.6ZM545.52-21.2L530.27-21.2 530.27-23.9 545.52-23.9 545.52-21.2ZM559.77 0.6L559.77 0.6Q557.82 0.6 556.27-0.15 554.72-0.9 553.82-2.4 552.92-3.9 552.92-6.15L552.92-6.15 552.92-30.55 556.77-30.55 556.77-6.25Q556.77-2.55 560.22-2.55L560.22-2.55Q561.24-2.55 562.21-2.78 563.17-3 564.37-3.45L564.37-3.45 564.92-0.65Q563.64-0.1 562.38 0.25 561.12 0.6 559.77 0.6ZM564.32-21.2L549.07-21.2 549.07-23.9 564.32-23.9 564.32-21.2ZM579.52 0.6L579.52 0.6Q576.42 0.6 573.98-0.99 571.54-2.58 570.13-5.4 568.72-8.22 568.72-11.9L568.72-11.9Q568.72-15.83 570.12-18.65 571.52-21.48 573.95-22.99 576.39-24.5 579.52-24.5L579.52-24.5Q582.24-24.5 584.17-23.4 586.09-22.3 587.27-20.43 588.44-18.55 588.9-16.19 589.37-13.83 589.17-11.3L589.17-11.3 571.87-11.3 571.87-13.7 586.59-13.7 585.44-12.95Q585.52-14.43 585.28-15.9 585.04-17.38 584.39-18.61 583.74-19.85 582.57-20.6 581.39-21.35 579.57-21.35L579.57-21.35Q577.27-21.35 575.72-20.18 574.17-19 573.39-17.09 572.62-15.18 572.62-12.95L572.62-12.95 572.62-11.35Q572.62-8.85 573.38-6.88 574.14-4.9 575.67-3.75 577.19-2.6 579.52-2.6L579.52-2.6Q581.84-2.6 583.34-3.73 584.84-4.85 585.17-7.05L585.17-7.05 589.22-7.05Q588.84-4.67 587.52-2.96 586.19-1.25 584.14-0.33 582.09 0.6 579.52 0.6ZM600.79 0L596.89 0 596.89-23.95 600.79-23.95 600.79 0ZM600.79-10.8L599.59-10.8Q599.59-15.35 600.46-18.36 601.34-21.38 603.03-22.86 604.71-24.35 607.14-24.35L607.14-24.35Q607.94-24.35 608.6-24.24 609.26-24.13 609.94-23.9L609.94-23.9 609.69-20.05Q608.99-20.28 608.16-20.44 607.34-20.6 606.69-20.6L606.69-20.6Q604.56-20.6 603.26-19.39 601.96-18.18 601.38-15.98 600.79-13.78 600.79-10.8L600.79-10.8ZM623.56 0.6L623.56 0.6Q620.09 0.6 617.76-0.39 615.44-1.38 614.24-3.11 613.04-4.85 612.96-7.1L612.96-7.1 616.71-7.1Q616.84-4.83 618.55-3.69 620.26-2.55 623.21-2.55L623.21-2.55Q624.76-2.55 626.06-3.05 627.36-3.55 628.14-4.42 628.91-5.3 628.91-6.4L628.91-6.4Q628.91-7.8 627.89-8.6 626.86-9.4 624.61-10L624.61-10 619.96-11.5Q616.94-12.45 615.32-14.11 613.71-15.78 613.71-18.1L613.71-18.1Q613.71-21 616.26-22.75 618.81-24.5 622.96-24.5L622.96-24.5Q627.36-24.5 629.79-22.7 632.21-20.9 632.31-18.2L632.31-18.2 628.46-18.2Q628.24-19.78 626.86-20.59 625.49-21.4 622.96-21.4L622.96-21.4Q620.54-21.4 619.17-20.31 617.81-19.23 617.81-17.9L617.81-17.9Q617.81-15.43 622.06-14.25L622.06-14.25 626.81-12.65Q629.89-11.73 631.52-10.23 633.16-8.72 633.16-6.4L633.16-6.4Q633.16-4.6 631.99-3 630.81-1.4 628.66-0.4 626.51 0.6 623.56 0.6Z" opacity="1" transform="matrix(1,0,0,1,0,0)" fill="#ffffff" class="undefined-text-1" data-fill-palette-color="secondary" id="text-1"></path></svg></g></svg></g></svg></g></svg></g><g></g></svg></g><defs></defs></svg><rect width="395.52" height="155.79283105039553" fill="none" stroke="none" visibility="hidden"></rect></g></svg></g></svg>